<?xml version="1.0" standalone="no"?>
<!DOCTYPE svg PUBLIC "-//W3C//DTD SVG 20010904//EN"
 "http://www.w3.org/TR/2001/REC-SVG-20010904/DTD/svg10.dtd">
<svg version="1.0" xmlns="http://www.w3.org/2000/svg"
 width="1016.000000pt" height="234.000000pt" viewBox="0 0 1016.000000 234.000000"
 preserveAspectRatio="xMidYMid meet">

<g transform="translate(0.000000,234.000000) scale(0.100000,-0.100000)"
fill="#000000" stroke="none">
<path d="M2946 2160 c-214 -68 -345 -313 -282 -524 13 -44 13 -47 -2 -41 -9 4
-45 12 -79 18 -162 29 -342 -57 -430 -204 -132 -221 -44 -500 195 -612 60 -28
77 -31 162 -32 52 0 110 4 129 9 32 8 34 7 27 -15 -5 -13 -10 -62 -13 -109 -4
-70 -1 -96 17 -149 104 -308 483 -399 711 -172 98 99 145 236 122 364 -6 34
-14 69 -18 78 -6 15 -1 15 47 3 221 -58 453 71 519 288 76 249 -85 506 -345
551 -64 11 -157 3 -210 -19 -16 -6 -18 -4 -12 12 5 10 13 47 19 82 27 155 -49
326 -189 422 -98 68 -248 88 -368 50z m72 -833 c60 -11 154 -2 206 19 16 6 18
4 12 -12 -21 -52 -30 -146 -19 -206 6 -35 14 -70 18 -80 6 -15 3 -15 -46 -1
-52 15 -184 14 -238 -3 -22 -6 -23 -5 -17 17 17 54 18 186 3 238 -14 49 -14
52 1 46 10 -4 45 -12 80 -18z"/>
<path d="M6546 2159 c-197 -68 -324 -275 -289 -471 6 -35 14 -72 19 -82 6 -16
4 -18 -12 -12 -10 5 -47 13 -81 19 -273 48 -534 -217 -484 -490 41 -225 230
-376 449 -360 43 3 88 9 101 13 22 7 23 5 17 -22 -39 -169 8 -332 127 -440
217 -195 554 -125 679 142 38 81 49 209 25 287 -8 26 -14 47 -14 47 1 0 24 -7
51 -15 192 -58 414 47 501 236 147 323 -155 685 -495 594 -30 -8 -55 -15 -56
-15 -1 0 5 23 12 52 71 274 -136 539 -420 538 -45 -1 -93 -8 -130 -21z m72
-832 c60 -11 154 -2 206 19 17 6 18 4 12 -17 -29 -101 -29 -177 0 -276 6 -21
6 -21 -46 -6 -53 15 -185 14 -239 -3 -21 -6 -23 -5 -16 12 17 40 18 201 1 249
-14 44 -14 46 2 40 9 -4 45 -12 80 -18z"/>
<path d="M8230 2034 c-133 -35 -256 -132 -318 -251 -60 -115 -62 -131 -62
-846 l0 -647 248 2 247 3 3 639 c1 452 5 643 13 653 9 10 91 13 424 13 386 0
413 -1 428 -18 15 -17 17 -77 17 -655 l0 -637 245 0 245 0 0 655 c0 439 -4
671 -11 707 -38 182 -185 334 -370 383 -80 22 -1029 20 -1109 -1z"/>
<path d="M200 1160 l0 -880 255 0 255 0 0 880 0 880 -255 0 -255 0 0 -880z"/>
<path d="M1298 1722 c-213 -174 -403 -337 -422 -362 -43 -54 -76 -136 -76
-189 0 -21 6 -59 14 -86 32 -103 66 -138 476 -480 l390 -325 381 2 381 3 -546
444 c-300 244 -546 446 -545 450 0 3 227 188 504 411 278 223 517 415 532 427
l28 23 -365 -1 -365 0 -387 -317z"/>
<path d="M3990 1815 l0 -225 335 0 335 0 0 -655 0 -655 255 0 255 0 0 655 0
655 323 2 322 3 3 223 2 222 -915 0 -915 0 0 -225z"/>
</g>
</svg>
